<svg width="195" height="40" viewBox="0 0 195 40" fill="none" xmlns="http://www.w3.org/2000/svg">
<path d="M14.308 2.04H21.336L35.56 39H28.112L25.228 31.02H10.444L7.504 39H0.028L14.308 2.04ZM12.74 24.832H22.932L17.864 10.496H17.78L12.74 24.832ZM39.8405 39V16.012H46.9245V39H39.8405ZM43.4805 10.076C42.3045 10.076 41.3058 9.66533 40.4845 8.844C39.6818 8.02267 39.2805 7.04267 39.2805 5.904C39.2805 4.76533 39.6912 3.776 40.5125 2.936C41.3338 2.096 42.3232 1.676 43.4805 1.676C44.2458 1.676 44.9458 1.872 45.5805 2.264C46.2152 2.63733 46.7285 3.14133 47.1205 3.776C47.5125 4.41066 47.7085 5.12 47.7085 5.904C47.7085 7.04267 47.2885 8.02267 46.4485 8.844C45.6272 9.66533 44.6378 10.076 43.4805 10.076ZM60.5898 39H53.4778V16.012H60.5898V19.736H60.4498C60.5805 19.288 60.9351 18.7187 61.5138 18.028C62.1111 17.3373 62.9325 16.7213 63.9778 16.18C65.0231 15.62 66.2831 15.34 67.7578 15.34C68.8218 15.34 69.7831 15.4987 70.6418 15.816C71.5191 16.1147 72.1445 16.4133 72.5178 16.712L69.7178 22.536C69.4751 22.2373 69.0178 21.9293 68.3458 21.612C67.6925 21.2947 66.8711 21.136 65.8818 21.136C64.7058 21.136 63.7258 21.4627 62.9418 22.116C62.1578 22.7507 61.5698 23.5347 61.1778 24.468C60.7858 25.3827 60.5898 26.2413 60.5898 27.044V39ZM93.219 39V34.996C93.051 35.4067 92.6217 35.9853 91.931 36.732C91.2403 37.4787 90.307 38.16 89.131 38.776C87.9737 39.3733 86.611 39.672 85.043 39.672C82.8403 39.672 80.8897 39.1493 79.191 38.104C77.4923 37.04 76.1577 35.5933 75.187 33.764C74.235 31.916 73.759 29.8347 73.759 27.52C73.759 25.2053 74.235 23.1333 75.187 21.304C76.1577 19.456 77.4923 18 79.191 16.936C80.8897 15.872 82.8403 15.34 85.043 15.34C86.5737 15.34 87.899 15.6013 89.019 16.124C90.1577 16.628 91.0723 17.2253 91.763 17.916C92.4723 18.588 92.9297 19.1947 93.135 19.736V16.012H100.191V39H93.219ZM80.731 27.52C80.731 28.808 81.0203 29.9467 81.599 30.936C82.1777 31.9067 82.943 32.6627 83.895 33.204C84.847 33.7453 85.883 34.016 87.003 34.016C88.179 34.016 89.2243 33.7453 90.139 33.204C91.0537 32.644 91.7723 31.8787 92.295 30.908C92.8363 29.9187 93.107 28.7893 93.107 27.52C93.107 26.2507 92.8363 25.1307 92.295 24.16C91.7723 23.1707 91.0537 22.396 90.139 21.836C89.2243 21.276 88.179 20.996 87.003 20.996C85.883 20.996 84.847 21.276 83.895 21.836C82.943 22.3773 82.1777 23.1427 81.599 24.132C81.0203 25.1027 80.731 26.232 80.731 27.52ZM121.457 15.34C123.025 15.34 124.556 15.6667 126.049 16.32C127.543 16.9547 128.765 17.972 129.717 19.372C130.688 20.772 131.173 22.6013 131.173 24.86V39H124.033V26.092C124.033 24.2067 123.604 22.8067 122.745 21.892C121.905 20.9773 120.776 20.52 119.357 20.52C118.405 20.52 117.491 20.7813 116.613 21.304C115.755 21.808 115.045 22.5173 114.485 23.432C113.944 24.328 113.673 25.3547 113.673 26.512V39H106.533V0.471999H113.673V19.68C113.86 19.0453 114.317 18.392 115.045 17.72C115.773 17.048 116.697 16.488 117.817 16.04C118.937 15.5733 120.151 15.34 121.457 15.34ZM142.853 39.672C141.602 39.672 140.529 39.224 139.633 38.328C138.737 37.432 138.289 36.3587 138.289 35.108C138.289 33.82 138.737 32.728 139.633 31.832C140.529 30.936 141.602 30.488 142.853 30.488C144.141 30.488 145.224 30.936 146.101 31.832C146.997 32.728 147.445 33.82 147.445 35.108C147.445 36.3587 146.997 37.432 146.101 38.328C145.224 39.224 144.141 39.672 142.853 39.672Z" fill="#373737"/>
<path d="M173.102 39V34.996C172.934 35.4067 172.505 35.9853 171.814 36.732C171.123 37.4787 170.19 38.16 169.014 38.776C167.857 39.3733 166.494 39.672 164.926 39.672C162.723 39.672 160.773 39.1493 159.074 38.104C157.375 37.04 156.041 35.5933 155.07 33.764C154.118 31.916 153.642 29.8347 153.642 27.52C153.642 25.2053 154.118 23.1333 155.07 21.304C156.041 19.456 157.375 18 159.074 16.936C160.773 15.872 162.723 15.34 164.926 15.34C166.457 15.34 167.782 15.6013 168.902 16.124C170.041 16.628 170.955 17.2253 171.646 17.916C172.355 18.588 172.813 19.1947 173.018 19.736V16.012H180.074V39H173.102ZM160.614 27.52C160.614 28.808 160.903 29.9467 161.482 30.936C162.061 31.9067 162.826 32.6627 163.778 33.204C164.73 33.7453 165.766 34.016 166.886 34.016C168.062 34.016 169.107 33.7453 170.022 33.204C170.937 32.644 171.655 31.8787 172.178 30.908C172.719 29.9187 172.99 28.7893 172.99 27.52C172.99 26.2507 172.719 25.1307 172.178 24.16C171.655 23.1707 170.937 22.396 170.022 21.836C169.107 21.276 168.062 20.996 166.886 20.996C165.766 20.996 164.73 21.276 163.778 21.836C162.826 22.3773 162.061 23.1427 161.482 24.132C160.903 25.1027 160.614 26.232 160.614 27.52ZM186.865 39V16.012H193.949V39H186.865ZM190.505 10.076C189.329 10.076 188.33 9.66533 187.509 8.844C186.706 8.02267 186.305 7.04267 186.305 5.904C186.305 4.76533 186.715 3.776 187.537 2.936C188.358 2.096 189.347 1.676 190.505 1.676C191.27 1.676 191.97 1.872 192.605 2.264C193.239 2.63733 193.753 3.14133 194.145 3.776C194.537 4.41066 194.733 5.12 194.733 5.904C194.733 7.04267 194.313 8.02267 193.473 8.844C192.651 9.66533 191.662 10.076 190.505 10.076Z" fill="#007AFF"/>
</svg>
