<svg width="80" height="131" viewBox="0 0 80 131" fill="none" xmlns="http://www.w3.org/2000/svg">
<path d="M7.19727 117.61H11.5586V119.49H7.19727V124.432H5.19922V119.49H0.837891V117.61H5.19922V113.045H7.19727V117.61Z" fill="#E5E5E5"/>
<path d="M42.1973 12.6104H46.5586V14.4902H42.1973V19.4316H40.1992V14.4902H35.8379V12.6104H40.1992V8.04492H42.1973V12.6104Z" fill="#E5E5E5"/>
<path d="M42.1973 47.6104H46.5586V49.4902H42.1973V54.4316H40.1992V49.4902H35.8379V47.6104H40.1992V43.0449H42.1973V47.6104Z" fill="#E5E5E5"/>
<path d="M46.5586 82.6104V84.4795H35.8379V82.6104H46.5586ZM42.1973 78.0449V89.4316H40.21V78.0449H42.1973Z" fill="#007AFF"/>
<path d="M42.1973 117.61H46.5586V119.49H42.1973V124.432H40.1992V119.49H35.8379V117.61H40.1992V113.045H42.1973V117.61Z" fill="#E5E5E5"/>
<path d="M77.1973 12.6104H81.5586V14.4902H77.1973V19.4316H75.1992V14.4902H70.8379V12.6104H75.1992V8.04492H77.1973V12.6104Z" fill="#E5E5E5"/>
<path d="M77.1973 47.6104H81.5586V49.4902H77.1973V54.4316H75.1992V49.4902H70.8379V47.6104H75.1992V43.0449H77.1973V47.6104Z" fill="#E5E5E5"/>
<path d="M77.1973 82.6104H81.5586V84.4902H77.1973V89.4316H75.1992V84.4902H70.8379V82.6104H75.1992V78.0449H77.1973V82.6104Z" fill="#E5E5E5"/>
<path d="M77.1973 117.61H81.5586V119.49H77.1973V124.432H75.1992V119.49H70.8379V117.61H75.1992V113.045H77.1973V117.61Z" fill="#E5E5E5"/>
</svg>
